<svg fill="none" width="170" height="29" xmlns="http://www.w3.org/2000/svg" viewBox="0 0 170 29">
  <path d="M5.54 20.99v-.08l8.11-11.38V6.95H1.55v3.02h7.63v.08L1.23 21.36V24h12.45v-3.01H5.54zm18.38-8.7v5.67c0 1.1-.26 1.94-.75 2.52-.5.6-1.13.9-1.85.9-.75 0-1.3-.22-1.62-.64-.33-.42-.48-1.17-.48-2.22v-6.24h-3.14v7.06c0 .87.1 1.62.3 2.26a3.57 3.57 0 002.26 2.34 5.32 5.32 0 003.65-.15c.6-.28 1.12-.68 1.58-1.22h.05V24h3.14V12.28h-3.14zm12.94-.2c-.7 0-1.35.17-1.96.5-.61.32-1.14.8-1.58 1.41h-.04v-1.72h-3.14V24h3.14v-5.44c0-.89.26-1.63.79-2.2a2.89 2.89 0 012.2-.86c.23 0 .52.02.83.04v-3.45h-.24zm4-1.46c.52 0 .98-.19 1.36-.56a1.86 1.86 0 000-2.7 1.9 1.9 0 00-1.37-.57c-.54 0-1 .18-1.38.56-.38.37-.56.83-.56 1.35a1.86 1.86 0 00.96 1.66c.3.18.63.26.98.26zM39.27 24h3.14V12.28h-3.14V24zm19.51 0h3.4V6.95h-3.4V24zM72.7 12.08a5.04 5.04 0 00-3.76 1.71h-.03v-1.5h-3.14V24h3.14v-5.9c0-1.01.23-1.8.71-2.36a2.45 2.45 0 011.95-.83c.76 0 1.32.22 1.7.65.36.45.55 1.2.55 2.28V24h3.14v-6.96c0-.88-.1-1.64-.3-2.3a3.82 3.82 0 00-.9-1.54 3.8 3.8 0 00-1.33-.85 4.92 4.92 0 00-1.73-.28zM83.61 24.2a5.94 5.94 0 003.1-.74l-.8-2.5a3.2 3.2 0 01-1.48.4c-.37 0-.63-.11-.8-.36-.16-.23-.23-.62-.23-1.14v-4.98h3.19v-2.6H83.4V8.11l-3.14.34v3.83h-1.38v2.6h1.38v5.42c0 1.29.3 2.26.9 2.91.59.66 1.41.99 2.45.99zm15.65-6.16c0-1.14-.25-2.16-.72-3.06a5.35 5.35 0 00-2.02-2.12 5.85 5.85 0 00-3.02-.78c-.82 0-1.59.15-2.3.45a5.54 5.54 0 00-3.06 3.16c-.3.75-.45 1.57-.45 2.44 0 1.2.26 2.26.79 3.19a5.38 5.38 0 002.16 2.14c.92.5 1.94.74 3.09.74 1.12 0 2.1-.2 2.97-.6.86-.4 1.55-.94 2.09-1.62l-2.04-1.9a3.44 3.44 0 01-2.8 1.33 2.91 2.91 0 01-2.99-2.25h8.22c.04-.19.08-.56.08-1.12zm-5.65-3.2c.66 0 1.2.2 1.64.56.42.36.73.87.9 1.5h-5.18c.18-.66.5-1.17.96-1.52a2.7 2.7 0 011.68-.53zm14.87-2.76c-.7 0-1.35.18-1.96.5-.6.33-1.13.81-1.58 1.42h-.03v-1.72h-3.14V24h3.14v-5.44c0-.89.25-1.63.78-2.2a2.89 2.89 0 012.2-.86c.24 0 .52.02.84.04v-3.45h-.25zm9.22 0a5.04 5.04 0 00-3.76 1.71h-.03v-1.5h-3.14V24h3.14v-5.9c0-1.01.23-1.8.71-2.36a2.45 2.45 0 011.95-.83c.76 0 1.32.22 1.7.65.36.45.55 1.2.55 2.28V24h3.14v-6.96c0-.88-.1-1.64-.3-2.3a3.83 3.83 0 00-.9-1.54 3.8 3.8 0 00-1.33-.85 4.92 4.92 0 00-1.73-.28zm11.05 12.12c1.48 0 2.6-.33 3.38-1a3.33 3.33 0 001.17-2.65c0-.28-.02-.55-.07-.78-.15-.77-.6-1.4-1.36-1.88-.44-.28-1.31-.65-2.6-1.13a7.04 7.04 0 01-1.35-.64c-.28-.18-.4-.4-.4-.63 0-.28.1-.49.34-.64.24-.15.5-.24.8-.24.44 0 .91.1 1.4.32.5.21.96.52 1.4.93l1.52-2.3a7.15 7.15 0 00-2.02-1.13 6.98 6.98 0 00-2.27-.35c-.8 0-1.52.15-2.15.44-.63.29-1.14.7-1.51 1.24a3.13 3.13 0 00-.55 1.84c0 .37.03.71.13 1.02.08.31.2.6.37.83a3.73 3.73 0 001.31 1.2 13.76 13.76 0 001.8.76c.55.18.96.32 1.24.44s.49.25.65.39c.16.14.24.3.24.47 0 .29-.13.52-.39.7-.26.19-.6.27-1.05.27-1.2 0-2.28-.46-3.25-1.37l-1.52 2.17a6.92 6.92 0 004.74 1.72zm13.97-12.12c-.76 0-1.46.14-2.12.41a4.7 4.7 0 00-1.69 1.2h-.04V6.34h-3.14V24h3.14v-5.94c0-1.03.23-1.8.72-2.35.48-.53 1.15-.8 2.02-.8.77 0 1.35.22 1.72.64.38.43.56 1.17.56 2.2v6.26h3.16v-7.05c0-.87-.1-1.63-.32-2.26a3.73 3.73 0 00-.9-1.53c-.4-.37-.85-.64-1.36-.82a5.36 5.36 0 00-1.75-.27zm9.04-1.45c.53 0 .98-.19 1.37-.56.37-.38.57-.82.57-1.36 0-.52-.2-.98-.57-1.35a1.9 1.9 0 00-1.37-.56c-.54 0-1.01.18-1.38.56-.38.37-.57.83-.57 1.35a1.87 1.87 0 00.96 1.66c.3.18.64.26.99.26zM150.19 24h3.14V12.28h-3.14V24zm13.2-11.92a4.4 4.4 0 00-3.55 1.55h-.04v-1.35h-3.14v16.47h3.14v-6.06h.04c.84 1 1.98 1.5 3.46 1.5.8 0 1.55-.13 2.24-.42a5.1 5.1 0 002.95-3.12 7.4 7.4 0 00.15-4.46 5.85 5.85 0 00-1.95-2.98 5 5 0 00-1.53-.84 5.6 5.6 0 00-1.76-.29zm-.66 9.3c-.58 0-1.1-.12-1.56-.38a2.79 2.79 0 01-1.1-1.14c-.27-.49-.4-1.04-.4-1.67 0-.46.07-.9.22-1.3s.36-.75.63-1.05c.26-.28.59-.51.96-.68.38-.16.8-.25 1.25-.25.85 0 1.57.3 2.14.9.56.6.86 1.4.86 2.38a3.2 3.2 0 01-.85 2.3c-.56.6-1.28.9-2.15.9z" fill="#fff"/>
  <path d="M50.95 24.37c.97 0 1.8-.35 2.5-1.04a3.41 3.41 0 000-4.94 3.43 3.43 0 00-2.5-1.05c-1 0-1.87.34-2.56 1.03a3.4 3.4 0 00-1.03 2.5 3.47 3.47 0 003.59 3.5z" fill="#E7332B"/>
</svg>